<svg width="20" height="21" viewBox="0 0 20 21" fill="none" xmlns="http://www.w3.org/2000/svg">
<g id="ri:instagram-line">
<path id="Vector" d="M9.99935 8.00002C9.33631 8.00002 8.70042 8.26341 8.23158 8.73225C7.76274 9.2011 7.49935 9.83698 7.49935 10.5C7.49935 11.1631 7.76274 11.7989 8.23158 12.2678C8.70042 12.7366 9.33631 13 9.99935 13C10.6624 13 11.2983 12.7366 11.7671 12.2678C12.236 11.7989 12.4994 11.1631 12.4994 10.5C12.4994 9.83698 12.236 9.2011 11.7671 8.73225C11.2983 8.26341 10.6624 8.00002 9.99935 8.00002ZM9.99935 6.33335C11.1044 6.33335 12.1642 6.77234 12.9456 7.55374C13.727 8.33514 14.166 9.39495 14.166 10.5C14.166 11.6051 13.727 12.6649 12.9456 13.4463C12.1642 14.2277 11.1044 14.6667 9.99935 14.6667C8.89428 14.6667 7.83447 14.2277 7.05307 13.4463C6.27167 12.6649 5.83268 11.6051 5.83268 10.5C5.83268 9.39495 6.27167 8.33514 7.05307 7.55374C7.83447 6.77234 8.89428 6.33335 9.99935 6.33335ZM15.416 6.12502C15.416 6.40129 15.3063 6.66624 15.1109 6.86159C14.9156 7.05694 14.6506 7.16669 14.3744 7.16669C14.0981 7.16669 13.8331 7.05694 13.6378 6.86159C13.4424 6.66624 13.3327 6.40129 13.3327 6.12502C13.3327 5.84875 13.4424 5.5838 13.6378 5.38845C13.8331 5.1931 14.0981 5.08335 14.3744 5.08335C14.6506 5.08335 14.9156 5.1931 15.1109 5.38845C15.3063 5.5838 15.416 5.84875 15.416 6.12502ZM9.99935 3.83335C7.93768 3.83335 7.60102 3.83919 6.64185 3.88169C5.98852 3.91252 5.55018 4.00002 5.14352 4.15835C4.8032 4.2833 4.49553 4.48357 4.24352 4.74419C3.98269 4.99619 3.78214 5.30384 3.65685 5.64419C3.49852 6.05252 3.41102 6.49002 3.38102 7.14252C3.33768 8.06252 3.33268 8.38419 3.33268 10.5C3.33268 12.5617 3.33852 12.8984 3.38102 13.8575C3.41185 14.51 3.49935 14.9492 3.65685 15.355C3.79852 15.7175 3.96518 15.9784 4.24185 16.255C4.52268 16.535 4.78352 16.7025 5.14185 16.8409C5.55352 17 5.99185 17.0884 6.64185 17.1184C7.56185 17.1617 7.88352 17.1667 9.99935 17.1667C12.061 17.1667 12.3977 17.1609 13.3569 17.1184C14.0085 17.0875 14.4477 17 14.8544 16.8425C15.1942 16.7169 15.5016 16.5171 15.7544 16.2575C16.0352 15.9767 16.2027 15.7159 16.341 15.3575C16.4994 14.9467 16.5877 14.5075 16.6177 13.8575C16.661 12.9375 16.666 12.6159 16.666 10.5C16.666 8.43835 16.6602 8.10169 16.6177 7.14252C16.5869 6.49085 16.4994 6.05085 16.341 5.64419C16.2154 5.30419 16.0152 4.99665 15.7552 4.74419C15.5033 4.48323 15.1956 4.28266 14.8552 4.15752C14.4469 3.99919 14.0085 3.91169 13.3569 3.88169C12.4369 3.83835 12.1152 3.83335 9.99935 3.83335ZM9.99935 2.16669C12.2635 2.16669 12.546 2.17502 13.4344 2.21669C14.3219 2.25835 14.926 2.39752 15.4577 2.60419C16.0077 2.81585 16.471 3.10252 16.9344 3.56502C17.3581 3.9816 17.686 4.48551 17.8952 5.04169C18.101 5.57252 18.241 6.17752 18.2827 7.06502C18.3219 7.95335 18.3327 8.23585 18.3327 10.5C18.3327 12.7642 18.3244 13.0467 18.2827 13.935C18.241 14.8225 18.101 15.4267 17.8952 15.9584C17.6866 16.5148 17.3586 17.0189 16.9344 17.435C16.5177 17.8586 16.0138 18.1865 15.4577 18.3959C14.9269 18.6017 14.3219 18.7417 13.4344 18.7834C12.546 18.8225 12.2635 18.8334 9.99935 18.8334C7.73518 18.8334 7.45268 18.825 6.56435 18.7834C5.67685 18.7417 5.07268 18.6017 4.54102 18.3959C3.98462 18.1871 3.48062 17.8591 3.06435 17.435C2.64052 17.0185 2.31263 16.5146 2.10352 15.9584C1.89685 15.4275 1.75768 14.8225 1.71602 13.935C1.67685 13.0467 1.66602 12.7642 1.66602 10.5C1.66602 8.23585 1.67435 7.95335 1.71602 7.06502C1.75768 6.17669 1.89685 5.57335 2.10352 5.04169C2.31205 4.48517 2.64002 3.98112 3.06435 3.56502C3.48074 3.14105 3.98471 2.81313 4.54102 2.60419C5.07268 2.39752 5.67602 2.25835 6.56435 2.21669C7.45268 2.17752 7.73518 2.16669 9.99935 2.16669Z" fill="black"/>
</g>
</svg>
