<svg width="20" height="21" viewBox="0 0 20 21" fill="none" xmlns="http://www.w3.org/2000/svg">
<g id="ri:youtube-fill">
<path id="Vector" d="M17.9519 5.91498C18.3327 7.39998 18.3327 10.5 18.3327 10.5C18.3327 10.5 18.3327 13.6 17.9519 15.085C17.7402 15.9058 17.121 16.5516 16.3369 16.77C14.9127 17.1666 9.99935 17.1666 9.99935 17.1666C9.99935 17.1666 5.08852 17.1666 3.66185 16.77C2.87435 16.5483 2.25602 15.9033 2.04685 15.085C1.66602 13.6 1.66602 10.5 1.66602 10.5C1.66602 10.5 1.66602 7.39998 2.04685 5.91498C2.25852 5.09415 2.87768 4.44831 3.66185 4.22998C5.08852 3.83331 9.99935 3.83331 9.99935 3.83331C9.99935 3.83331 14.9127 3.83331 16.3369 4.22998C17.1244 4.45165 17.7427 5.09665 17.9519 5.91498ZM8.33268 13.4166L13.3327 10.5L8.33268 7.58331V13.4166Z" fill="black"/>
</g>
</svg>
